<?xml version="1.0" encoding="utf-8"?>

<!-- Uploaded to: SVG Repo, www.svgrepo.com, Generator: SVG Repo Mixer Tools -->
<svg version="1.1" id="Icons" xmlns="http://www.w3.org/2000/svg" xmlns:xlink="http://www.w3.org/1999/xlink" 
	 viewBox="0 0 32 32" xml:space="preserve">
<style type="text/css">
	.st0{fill:none;stroke:#000000;stroke-width:2;stroke-linecap:round;stroke-linejoin:round;stroke-miterlimit:10;}
</style>
<g>
	<path d="M27,23H5c-0.6,0-1-0.4-1-1V7c0-0.6,0.4-1,1-1h22c0.6,0,1,0.4,1,1v15C28,22.6,27.6,23,27,23z M6,21h20V8H6V21z"/>
</g>
<g>
	<path d="M26,26H6c-2.8,0-5-2.2-5-5c0-0.6,0.4-1,1-1h9c0.3,0,0.5,0.1,0.7,0.3l0.7,0.7h7.2l0.7-0.7c0.2-0.2,0.4-0.3,0.7-0.3h9
		c0.6,0,1,0.4,1,1C31,23.8,28.8,26,26,26z"/>
</g>
</svg>